<svg width="275" height="140" viewBox="0 0 275 140" fill="none" xmlns="http://www.w3.org/2000/svg">
<rect width="275" height="140" fill="white"/>
<path d="M122.902 61.076C124.526 61.076 126.01 61.342 127.354 61.874C128.698 62.378 129.86 63.134 130.84 64.142C131.82 65.15 132.576 66.368 133.108 67.796C133.668 69.196 133.948 70.778 133.948 72.542C133.948 74.754 133.486 76.686 132.562 78.338C131.666 79.99 130.434 81.264 128.866 82.16C127.298 83.056 125.52 83.504 123.532 83.504C122.44 83.504 121.39 83.322 120.382 82.958C119.402 82.594 118.52 82.09 117.736 81.446C116.98 80.774 116.364 80.018 115.888 79.178H115.804V92.24H111.94V72.416C111.94 70.008 112.416 67.964 113.368 66.284C114.348 64.604 115.664 63.316 117.316 62.42C118.968 61.524 120.83 61.076 122.902 61.076ZM122.902 64.394C121.614 64.394 120.424 64.716 119.332 65.36C118.268 66.004 117.414 66.914 116.77 68.09C116.154 69.266 115.846 70.652 115.846 72.248C115.846 73.872 116.154 75.286 116.77 76.49C117.414 77.666 118.268 78.576 119.332 79.22C120.424 79.864 121.628 80.186 122.944 80.186C124.288 80.186 125.492 79.85 126.556 79.178C127.62 78.506 128.46 77.582 129.076 76.406C129.72 75.23 130.042 73.858 130.042 72.29C130.042 70.666 129.72 69.266 129.076 68.09C128.432 66.914 127.564 66.004 126.472 65.36C125.408 64.716 124.218 64.394 122.902 64.394ZM143.93 83V52.34H147.794V83H143.93ZM167.882 83.504C165.81 83.504 164.018 83.014 162.506 82.034C160.994 81.026 159.832 79.668 159.02 77.96C158.208 76.252 157.802 74.362 157.802 72.29C157.802 70.19 158.25 68.3 159.146 66.62C160.042 64.912 161.33 63.568 163.01 62.588C164.69 61.58 166.706 61.076 169.058 61.076C171.326 61.076 173.272 61.566 174.896 62.546C176.52 63.526 177.766 64.856 178.634 66.536C179.53 68.216 179.978 70.092 179.978 72.164V83H176.072V78.632H175.988C175.568 79.444 174.994 80.228 174.266 80.984C173.566 81.712 172.684 82.314 171.62 82.79C170.556 83.266 169.31 83.504 167.882 83.504ZM168.89 80.186C170.29 80.186 171.522 79.85 172.586 79.178C173.678 78.478 174.518 77.526 175.106 76.322C175.722 75.09 176.03 73.718 176.03 72.206C176.03 70.722 175.736 69.392 175.148 68.216C174.588 67.04 173.776 66.116 172.712 65.444C171.648 64.744 170.402 64.394 168.974 64.394C167.462 64.394 166.16 64.744 165.068 65.444C164.004 66.144 163.178 67.096 162.59 68.3C162.03 69.476 161.75 70.82 161.75 72.332C161.75 73.788 162.03 75.118 162.59 76.322C163.15 77.498 163.962 78.436 165.026 79.136C166.09 79.836 167.378 80.186 168.89 80.186ZM191.17 83V70.61C191.17 68.706 191.59 67.04 192.43 65.612C193.298 64.184 194.488 63.078 196 62.294C197.512 61.482 199.234 61.076 201.166 61.076C203.126 61.076 204.848 61.482 206.332 62.294C207.844 63.078 209.02 64.184 209.86 65.612C210.728 67.04 211.162 68.706 211.162 70.61V83H207.298V70.652C207.298 69.364 207.004 68.258 206.416 67.334C205.856 66.382 205.1 65.654 204.148 65.15C203.224 64.646 202.23 64.394 201.166 64.394C200.102 64.394 199.094 64.646 198.142 65.15C197.218 65.654 196.462 66.382 195.874 67.334C195.314 68.258 195.034 69.364 195.034 70.652V83H191.17ZM229.645 83C227.741 83 226.243 82.454 225.151 81.362C224.087 80.27 223.555 78.786 223.555 76.91V56.204H227.419V76.658C227.419 77.582 227.671 78.324 228.175 78.884C228.707 79.416 229.435 79.682 230.359 79.682H234.685V83H229.645ZM219.859 64.898V61.58H234.769V64.898H219.859Z" fill="#17260B"/>
<path d="M38.1667 102.333H79.8333" stroke="#17260B" stroke-width="2" stroke-linecap="round" stroke-linejoin="round"/>
<path d="M50.6667 102.333C73.5833 91.9167 54 75.6667 63.1667 60.6667" stroke="#17260B" stroke-width="2" stroke-linecap="round" stroke-linejoin="round"/>
<path d="M48.5833 58.1667C53.1667 61.5 56.0833 67.3333 58.1667 73.5833C49.8333 75.25 43.5833 75.25 38.1667 72.3333C33.1667 69.8333 28.5833 64.4167 25.6667 54.8333C37.3333 52.75 44 54.8333 48.5833 58.1667Z" fill="#17260B" stroke="#17260B" stroke-width="2" stroke-linecap="round" stroke-linejoin="round"/>
<path d="M67.75 44C64.5733 48.9648 62.9753 54.7756 63.1667 60.6667C71.0833 60.25 76.9167 58.1667 81.0833 54.8333C85.25 50.6667 87.75 45.25 88.1667 35.6667C76.9167 36.0833 71.5 39.8333 67.75 44Z" fill="#17260B" stroke="#17260B" stroke-width="2" stroke-linecap="round" stroke-linejoin="round"/>
</svg>
