<svg width="138" height="54" viewBox="0 0 138 54" fill="none" xmlns="http://www.w3.org/2000/svg">
<circle cx="27" cy="27" r="27" fill="#15191B"/>
<circle cx="27" cy="27" r="14" fill="#71D42A"/>
<path d="M71.9176 35.5V18.0455H74.5511V33.233H82.4602V35.5H71.9176ZM99.9467 26.7727C99.9467 28.6364 99.6058 30.2386 98.924 31.5795C98.2422 32.9148 97.3075 33.9432 96.12 34.6648C94.9382 35.3807 93.5945 35.7386 92.0888 35.7386C90.5774 35.7386 89.228 35.3807 88.0405 34.6648C86.8587 33.9432 85.9268 32.9119 85.245 31.571C84.5632 30.2301 84.2223 28.6307 84.2223 26.7727C84.2223 24.9091 84.5632 23.3097 85.245 21.9744C85.9268 20.6335 86.8587 19.6051 88.0405 18.8892C89.228 18.1676 90.5774 17.8068 92.0888 17.8068C93.5945 17.8068 94.9382 18.1676 96.12 18.8892C97.3075 19.6051 98.2422 20.6335 98.924 21.9744C99.6058 23.3097 99.9467 24.9091 99.9467 26.7727ZM97.3388 26.7727C97.3388 25.3523 97.1087 24.1562 96.6484 23.1847C96.1939 22.2074 95.5689 21.4688 94.7734 20.9688C93.9837 20.4631 93.0888 20.2102 92.0888 20.2102C91.0831 20.2102 90.1854 20.4631 89.3956 20.9688C88.6058 21.4688 87.9808 22.2074 87.5206 23.1847C87.0661 24.1562 86.8388 25.3523 86.8388 26.7727C86.8388 28.1932 87.0661 29.392 87.5206 30.3693C87.9808 31.3409 88.6058 32.0795 89.3956 32.5852C90.1854 33.0852 91.0831 33.3352 92.0888 33.3352C93.0888 33.3352 93.9837 33.0852 94.7734 32.5852C95.5689 32.0795 96.1939 31.3409 96.6484 30.3693C97.1087 29.392 97.3388 28.1932 97.3388 26.7727ZM115.043 23.5597C114.878 23.0426 114.656 22.5795 114.378 22.1705C114.105 21.7557 113.778 21.4034 113.398 21.1136C113.017 20.8182 112.582 20.5937 112.094 20.4403C111.611 20.2869 111.08 20.2102 110.5 20.2102C109.517 20.2102 108.631 20.4631 107.841 20.9688C107.051 21.4744 106.426 22.2159 105.966 23.1932C105.511 24.1648 105.284 25.3551 105.284 26.7642C105.284 28.179 105.514 29.375 105.974 30.3523C106.435 31.3295 107.065 32.071 107.866 32.5767C108.668 33.0824 109.58 33.3352 110.602 33.3352C111.551 33.3352 112.378 33.142 113.082 32.7557C113.793 32.3693 114.341 31.8239 114.727 31.1193C115.119 30.4091 115.315 29.5739 115.315 28.6136L115.997 28.7415H111.003V26.5682H117.864V28.554C117.864 30.0199 117.551 31.2926 116.926 32.3722C116.307 33.446 115.449 34.2756 114.352 34.8608C113.261 35.446 112.011 35.7386 110.602 35.7386C109.023 35.7386 107.636 35.375 106.443 34.6477C105.256 33.9205 104.33 32.8892 103.665 31.554C103 30.2131 102.668 28.6222 102.668 26.7812C102.668 25.3892 102.861 24.1392 103.247 23.0312C103.634 21.9233 104.176 20.983 104.875 20.2102C105.58 19.4318 106.406 18.8381 107.355 18.429C108.31 18.0142 109.352 17.8068 110.483 17.8068C111.426 17.8068 112.304 17.946 113.116 18.2244C113.935 18.5028 114.662 18.8977 115.298 19.4091C115.94 19.9205 116.472 20.5284 116.892 21.233C117.313 21.9318 117.597 22.7074 117.744 23.5597H115.043ZM136.369 26.7727C136.369 28.6364 136.028 30.2386 135.346 31.5795C134.664 32.9148 133.729 33.9432 132.542 34.6648C131.36 35.3807 130.016 35.7386 128.511 35.7386C126.999 35.7386 125.65 35.3807 124.462 34.6648C123.281 33.9432 122.349 32.9119 121.667 31.571C120.985 30.2301 120.644 28.6307 120.644 26.7727C120.644 24.9091 120.985 23.3097 121.667 21.9744C122.349 20.6335 123.281 19.6051 124.462 18.8892C125.65 18.1676 126.999 17.8068 128.511 17.8068C130.016 17.8068 131.36 18.1676 132.542 18.8892C133.729 19.6051 134.664 20.6335 135.346 21.9744C136.028 23.3097 136.369 24.9091 136.369 26.7727ZM133.761 26.7727C133.761 25.3523 133.531 24.1562 133.07 23.1847C132.616 22.2074 131.991 21.4688 131.195 20.9688C130.406 20.4631 129.511 20.2102 128.511 20.2102C127.505 20.2102 126.607 20.4631 125.817 20.9688C125.028 21.4688 124.403 22.2074 123.942 23.1847C123.488 24.1562 123.261 25.3523 123.261 26.7727C123.261 28.1932 123.488 29.392 123.942 30.3693C124.403 31.3409 125.028 32.0795 125.817 32.5852C126.607 33.0852 127.505 33.3352 128.511 33.3352C129.511 33.3352 130.406 33.0852 131.195 32.5852C131.991 32.0795 132.616 31.3409 133.07 30.3693C133.531 29.392 133.761 28.1932 133.761 26.7727Z" fill="black"/>
</svg>
